<svg xmlns="http://www.w3.org/2000/svg" width="225.443" height="294.81" viewBox="75 112 225.443 294.81"><g data-name="Find food you love vector"><path d="M275.116 154.736a2.38 2.38 0 1 1 3.839 2.814 2.38 2.38 0 0 1-3.839-2.814" fill="#fc6011" fill-rule="evenodd" data-name="Path 3052"/><path d="m251.239 145.813.205-7.402 7.403.206-.206 7.402-7.402-.206z" fill="#fc6011" fill-rule="evenodd" data-name="Rectangle 17286"/><path d="M269.875 136.355c2.457-3.355 7.19-4.092 10.545-1.635 3.36 2.462 4.087 7.196 1.63 10.551-2.457 3.355-7.186 4.086-10.547 1.624-3.354-2.457-4.085-7.185-1.628-10.54m8.879.641a4.734 4.734 0 0 0-6.604 1.025 4.727 4.727 0 0 0 7.626 5.585 4.736 4.736 0 0 0-1.022-6.61" fill="#fc6011" fill-rule="evenodd" data-name="Path 3051"/><path d="m271.571 123.063-6.713 1.038 1.024 6.666-5.437.839-1.024-6.666-6.67 1.03-.84-5.436 6.67-1.03-1.034-6.664 5.437-.84 1.035 6.663 6.712-1.036.84 5.436Zm-9.353-10.018-3.627.56 1.035 6.663-6.67 1.031.56 3.627 6.67-1.031 1.025 6.665 3.626-.56-1.023-6.664 6.712-1.038-.56-3.626-6.713 1.036-1.035-6.663Z" fill="#fc6011" fill-rule="evenodd" data-name="Path 3050"/><path d="M219.167 368.523a3.203 3.203 0 1 1-6.407 0 3.203 3.203 0 0 1 6.407 0" fill="#3e394f" fill-rule="evenodd" data-name="Path 3049"/><g data-name="Group 2185"><g data-name="Group 2184"><g data-name="Group 2183" transform="translate(219.375 328.43)" clip-path="url(&quot;#a&quot;)"><path d="M0 0v37.715l35.254 12.981S47.18 4.586 0 0" fill="#fecfb7" fill-rule="evenodd" data-name="Path 3048"/></g></g></g><path d="m235.09 382.15 12.616-2.186-8.2-9.834-4.416 12.02Z" fill="#3e394f" fill-rule="evenodd" data-name="Path 3047"/><path d="m209.561 334.444 6.403-11.088 6.402 11.088H209.56Z" fill="#3e394f" fill-rule="evenodd" data-name="Path 3046"/><path d="m238.741 377.648-23.694-8.707v-36.37h1.834v35.09l22.492 8.263-.632 1.724Z" fill="#3e394f" fill-rule="evenodd" data-name="Path 3045"/><path d="M259.82 364.314c0 21.465-17.401 38.866-38.866 38.866s-38.866-17.401-38.866-38.866 17.4-38.866 38.866-38.866c21.465 0 38.866 17.401 38.866 38.866" fill="#fff" fill-rule="evenodd" data-name="Path 3044"/><path d="M262.605 364.314c0 23.004-18.648 41.65-41.65 41.65-23.005 0-41.651-18.646-41.651-41.65 0-23.003 18.646-41.651 41.65-41.651 23.003 0 41.651 18.648 41.651 41.65" fill="#ffa9a9" fill-rule="evenodd" data-name="Path 3043"/><path d="M266.555 364.314c0 23.004-18.648 41.65-41.65 41.65-23.005 0-41.651-18.646-41.651-41.65 0-23.003 18.646-41.651 41.65-41.651 23.003 0 41.651 18.648 41.651 41.65" fill="#f25c5c" fill-rule="evenodd" data-name="Path 3042"/><path d="M127.906 178.274a3.547 3.547 0 0 1 4.051 2.955 3.547 3.547 0 0 1-2.956 4.05 3.545 3.545 0 1 1-1.095-7.006" fill="#fc6011" fill-rule="evenodd" data-name="Path 3041"/><path d="M117.625 145.073a5.187 5.187 0 1 1 1.602 10.25 5.187 5.187 0 0 1-1.602-10.25" fill="#fecfb7" fill-rule="evenodd" data-name="Path 3040"/><path d="m133.557 161.397 3.693-7.66 7.662 3.692-3.693 7.661-7.662-3.693z" fill="#fecfb7" fill-rule="evenodd" data-name="Rectangle 17284"/><path d="M149.528 141.468a6.109 6.109 0 0 1 5.085-6.977 6.115 6.115 0 0 1 6.978 5.09c.52 3.324-1.767 6.453-5.092 6.973a6.11 6.11 0 0 1-6.97-5.086m5.436-4.723a3.824 3.824 0 0 0 1.182 7.555 3.83 3.83 0 0 0 3.19-4.366 3.831 3.831 0 0 0-4.372-3.19" fill="#fc6011" fill-rule="evenodd" data-name="Path 3039"/><path d="m129.872 131.786-2.284 3.124-2.547-1.858 2.278-3.13-3.122-2.271 1.856-2.552 3.13 2.276 2.294-3.144 2.547 1.857-2.295 3.145 3.124 2.285-1.864 2.547-3.117-2.28Z" fill="#fc6011" fill-rule="evenodd" data-name="Path 3038"/><path d="M125.752 261.412c-1.856 0-1.594 2.874.251 2.874 1.856 0 1.594-2.874-.25-2.874" fill="#f25c5c" fill-rule="evenodd" data-name="Path 3037"/><path d="M131.767 260.41c-1.856 0-1.594 2.874.252 2.874 1.856 0 1.594-2.874-.252-2.874" fill="#f25c5c" fill-rule="evenodd" data-name="Path 3036"/><path d="M125.953 253.994c-1.856 0-1.594 2.874.251 2.874 1.857 0 1.595-2.874-.251-2.874" fill="#f25c5c" fill-rule="evenodd" data-name="Path 3035"/><path d="M112.231 280.285V406.81H90.487l6.85-126.525 7.447 7.183 7.447-7.183Z" fill="#fa9e4a" fill-rule="evenodd" data-name="Path 3034"/><path d="M194.398 406.81H112.23V280.285l5.985 7.182 5.984-7.182 6 7.182 5.986-7.182 6 7.182 5.984-7.182 5.984 7.182 6.002-7.182 5.984 7.182 5.984-7.182 6.001 7.182 5.985-7.182 10.288 126.525Z" fill="#fac46d" fill-rule="evenodd" data-name="Path 3033"/><path d="M106.426 240.446c-.977.858-1.495 2.12-1.854 3.37-1.331 4.663-.81 9.83 1.422 14.134a26.377 26.377 0 0 0 3.827-10.788c.26-2.134.242-4.382-.661-6.332-.131-.282-.29-.564-.537-.755-.635-.49-1.588-.158-2.197.37" fill="#4a4b4d" fill-rule="evenodd" data-name="Path 3032"/><path d="M85.186 249.937c.608 1.539 1.898 2.701 3.243 3.668 5.014 3.594 11.43 5.184 17.54 4.356a33.554 33.554 0 0 0-11.283-9.21c-2.444-1.228-5.144-2.169-7.868-1.922-.394.036-.8.104-1.133.32-.861.549-.873 1.832-.5 2.788" fill="#4a4b4d" fill-rule="evenodd" data-name="Path 3031"/><path d="M139.039 259.839c5.113 11.332.074 24.664-11.258 29.777-11.33 5.113-24.661.073-29.775-11.258-5.114-11.332-.073-24.663 11.257-29.777 11.331-5.113 24.662-.073 29.776 11.258" fill="#ffa9a9" fill-rule="evenodd" data-name="Path 3030"/><path d="M199.888 230.323c-5.203 5.223-10.083 10.758-14.656 16.538-.12-.474-.151-1.006-.232-1.453l-.747-4.176c-.157-.868-1.53-.746-1.373.127l.85 4.745c.117.656.184 1.382.516 1.973a193.737 193.737 0 0 0-4.939 6.625c-1.85 2.6-3.608 5.26-5.325 7.948l-2.33-10.312c-.193-.855-1.567-.736-1.372.127l2.672 11.827c-3.188 5.103-6.168 10.337-8.879 15.708l-2.599-13.017c-.172-.862-1.546-.742-1.372.128l2.869 14.369a.93.93 0 0 0 .161.345c-.031.063-.066.126-.099.19a194.059 194.059 0 0 0-7.157 16.512c-.313.827.941 1.398 1.258.568 2.22-5.852 4.757-11.577 7.533-17.186l15.108-3.096c.86-.176.74-1.55-.128-1.372l-14.199 2.909c1.676-3.31 3.412-6.591 5.275-9.8 1.013-1.745 2.08-3.458 3.147-5.17l15.436-1.585c.884-.09.755-1.464-.127-1.373l-14.408 1.48a194.168 194.168 0 0 1 10.526-14.937c.165.062.334.111.509.138.623.095 1.263.008 1.886-.048.858-.08 1.716-.158 2.574-.236l4.95-.454c.885-.08.757-1.454-.127-1.373l-4.356.4c-1.389.127-2.787.318-4.179.373a3.463 3.463 0 0 1-.295.001c.89-1.127 1.78-2.257 2.696-3.364a193.318 193.318 0 0 1 12.005-13.212c.625-.628-.45-1.492-1.072-.867" fill="#84878e" fill-rule="evenodd" data-name="Path 3029"/><path d="M203.879 226.963c2.295 14.359-.12 31.995-7.108 44.756-7.651 13.965-20.69 22.469-35.67 27.845-2.122.755-4.312 1.415-6.533 1.767-.795-2.168-1.313-4.412-1.698-6.695-1.752-10.446-.68-21.341 3.058-31.256 3.742-9.902 10.162-18.781 18.38-25.447 8.35-6.76 18.857-11.29 29.57-10.97" fill="#4a4b4d" fill-rule="evenodd" data-name="Path 3028"/><path d="M163.614 212.45a83.386 83.386 0 0 0-6.135 9.11l-8.303-9.792c-.34-.402-1.041.033-.697.438l8.716 10.28c.2.235.561.248.724-.033a81.66 81.66 0 0 1 6.323-9.46c.32-.41-.307-.956-.628-.543" fill="#b6b7b7" fill-rule="evenodd" data-name="Path 3027"/><path d="M164.945 231.688a78.81 78.81 0 0 1-8.36 12.619 61.425 61.425 0 0 0-9.481-12.032c-.38-.376-.935.224-.556.596a60.584 60.584 0 0 1 9.648 12.38c.13.22.504.246.662.052a79.919 79.919 0 0 0 8.836-13.24c.244-.461-.505-.835-.75-.375" fill="#b6b7b7" fill-rule="evenodd" data-name="Path 3026"/><path d="M168.312 251.809c-5.091 4.9-10.182 9.801-15.271 14.702a87.029 87.029 0 0 0-11.427-15.463c-.361-.39-.914.21-.556.596a86.136 86.136 0 0 1 11.545 15.746c.137.243.488.22.662.052l15.674-15.09c.38-.367-.25-.907-.627-.543" fill="#b6b7b7" fill-rule="evenodd" data-name="Path 3025"/><path d="m164.85 276.37-17.939 15.176a120.141 120.141 0 0 0-12.689-18.852c-.334-.408-1.035.027-.698.44a120.027 120.027 0 0 1 12.92 19.268c.138.256.485.202.663.051l18.37-15.539c.403-.341-.228-.88-.627-.543" fill="#b6b7b7" fill-rule="evenodd" data-name="Path 3024"/><path d="M157.523 216.927c-.602-7.008-1.811-13.985-3.754-20.784-.244-.855-.501-1.707-.768-2.557-.156-.497-.95-.247-.793.251 2.132 6.786 3.512 13.76 4.255 20.792.74 7.02.856 14.089.494 21.12-.37 7.193-1.254 14.35-2.476 21.441-1.243 7.212-2.838 14.36-4.616 21.46-1.788 7.144-3.762 14.24-5.756 21.33l-.751 2.67c-.14.5.68.676.82.177 2.007-7.122 4.013-14.248 5.853-21.415 1.846-7.193 3.525-14.432 4.86-21.737 1.297-7.082 2.264-14.225 2.751-21.412.481-7.095.492-14.233-.119-21.336" fill="#b6b7b7" fill-rule="evenodd" data-name="Path 3023"/><path d="M178.18 250.19a7.64 7.64 0 0 1-1.308 2.702c-1.038 1.364-2.385 2.474-3.701 3.577-1.564 1.336-3.137 2.663-4.71 3.998-1.47 1.243-3.005 2.443-4.402 3.769-1.19 1.132-2.351 2.742-1.777 4.45.529 1.546 2.315 1.888 3.796 1.8 1.808-.108 3.515-.84 5.342-.73 3.201.196 5.04 3.227 4.676 6.086-.417 3.22-3.099 5.804-5.7 7.6-2.747 1.895-5.904 3.162-9.035 4.348-5.887 2.235-12.642 4.55-15.82 10.236-.256.45-1.002.083-.745-.376.043-.078.096-.15.14-.227a99.88 99.88 0 0 1-7.906-7.066 97.609 97.609 0 0 1-7.29-8.1 78.188 78.188 0 0 1-3.322-4.38c-.978-1.385-1.894-2.865-2.352-4.496-.728-2.577 0-5.785 2.661-7.038 2.416-1.142 4.51.238 6.375 1.73.608.491 1.19.998 1.749 1.423 1.266.96 3.11 1.99 4.738 1.368 1.47-.565 1.926-2.21 1.737-3.605-.216-1.606-1.336-2.988-2.377-4.214-1.146-1.36-2.25-2.726-3.2-4.215-1.867-2.92-3.363-6.23-4.016-9.594-.31-1.618-.27-3.351.726-4.732.829-1.164 2.19-1.805 3.67-1.57 3.226.495 4.927 4.303 8.326 4.29 1.84-.01 2.39-1.717 2.011-3.216-.408-1.621-1.485-3.042-2.644-4.248-2.26-2.363-5.12-4.296-6.616-7.25-.67-1.317-1.015-2.815-.664-4.255a5.651 5.651 0 0 1 2.086-3.18c1.053-.773 2.42-1.043 3.692-.6 1.564.545 2.576 1.9 4.043 2.594.662.315 1.505.534 2.225.286.797-.283 1.112-1.046.982-1.818-.281-1.672-1.763-3.029-2.82-4.303-2.412-2.918-4.628-5.996-6.57-9.226-.884-1.47-1.745-3.093-1.715-4.818.02-1.347.696-2.701 1.867-3.455 1.196-.769 2.534-.563 3.75.08.977.521 2.344 1.793 3.546 1.395 1.627-.543 1.126-3.039.899-4.242-.345-1.844-.95-3.635-1.31-5.48-.546-2.724-.412-5.801 1.504-8.01 1.925-2.21 5.108-2.25 7.516-.664 2.836 1.868 3.761 5.13 3.868 8.257.069 1.778-.207 3.567-.088 5.338.107 1.586.785 3.468 2.526 4.011 1.289.413 2.578-.345 3.628-.966.982-.591 1.992-1.311 3.172-1.492 1.164-.164 2.299.396 2.84 1.41.68 1.243.496 2.753.224 4.066-.662 3.3-2.174 6.427-4.345 9.04-.99 1.195-2.568 2.394-2.73 4.025-.132 1.423.911 2.562 2.409 2.102 1.999-.6 4.566-3.02 6.503-.79.781.893.897 2.18.808 3.29-.125 1.464-.7 2.853-1.274 4.203a34.77 34.77 0 0 1-5.57 8.977c-1.024 1.204-2.2 2.481-2.547 4.049-.375 1.729 1.014 2.83 2.72 2.808 1.728-.014 3.28-.858 4.972-1.067 1.474-.178 2.89.248 3.858 1.375 1.203 1.401 1.392 3.128.969 4.74" fill="#7c7d7e" fill-rule="evenodd" data-name="Path 3022"/><path d="M128.827 239.261c.513-10.934.045-22.017-3.974-32.326-.224-.57.688-.857.911-.286 3.936 10.099 4.51 20.956 4.057 31.68-.487 11.522-1.644 23.03-2.54 34.525-.048.604-1.002.656-.954.043.874-11.201 1.974-22.412 2.5-33.636" fill="#4a4b4d" fill-rule="evenodd" data-name="Path 3021"/><path d="M133.375 217.99a28.593 28.593 0 0 0-4.288 9.156c2.55-.215 4.976-1.463 6.87-3.209 2.062-1.91 3.533-4.385 4.63-6.973.379-.894.719-1.915.362-2.824-.1-.263-.265-.507-.501-.653-.375-.234-.861-.186-1.29-.082-2.446.578-4.33 2.529-5.783 4.586" fill="#4a4b4d" fill-rule="evenodd" data-name="Path 3020"/><path d="M128.22 213.9c-.017.144-.038.284-.054.428 1.998-.647 4.011-1.38 5.66-2.682 1.645-1.298 2.896-3.263 2.842-5.359-.01-.506-.164-1.091-.637-1.268-.21-.074-.439-.054-.661-.013-1.661.304-3.017 1.468-4.253 2.62-1.647 1.532-3.338 3.334-3.51 5.58l-.166.118.37.526.41.05Z" fill="#4a4b4d" fill-rule="evenodd" data-name="Path 3019"/><path d="M128.666 238.612c-.01.254-.022.508-.037.758l.388.018a29.961 29.961 0 0 0 8.498-3.534c2.999-1.826 5.832-4.46 6.455-7.914.148-.83.128-1.779-.457-2.39-.792-.829-2.171-.597-3.234-.156-2.648 1.101-4.86 3.073-6.644 5.314-1.783 2.246-3.173 4.774-4.555 7.285l-.38-.018c-.009.182-.018.364-.03.541a.616.616 0 0 1-.004.096" fill="#4a4b4d" fill-rule="evenodd" data-name="Path 3018"/><path d="M128.053 252.918c-.005.45-.01.9-.007 1.349.262.091.565.029.844-.043a45.083 45.083 0 0 0 11.2-4.519c1.769-1.012 3.502-2.166 4.804-3.738 1.306-1.567 2.153-3.608 1.93-5.637-.06-.518-.197-1.05-.546-1.435-.324-.356-.797-.542-1.266-.642-1.962-.426-3.973.431-5.658 1.512-4.91 3.15-8.229 8.166-11.301 13.153" fill="#4a4b4d" fill-rule="evenodd" data-name="Path 3017"/><path d="M128.46 263.454c.058.562.12 1.117.196 1.673 4.241.147 8.425-1.218 12.25-3.075 1.132-.546 2.258-1.153 3.15-2.04.891-.886 1.527-2.1 1.463-3.358-.025-.49-.166-.989-.463-1.38-.68-.893-1.963-1.024-3.08-.929-2.942.255-5.724 1.558-8.06 3.365-2.1 1.617-3.868 3.623-5.456 5.744" fill="#339dd5" fill-rule="evenodd" data-name="Path 3016"/><path d="m125.5 207.582.149.394c.11-2.257-.107-4.54-.833-6.677-.786-2.307-2.19-4.438-4.16-5.88-.587-.435-1.45-.792-2-.306-.448.396-.383 1.104-.247 1.69a19.214 19.214 0 0 0 6.898 10.851l.193-.072Z" fill="#4a4b4d" fill-rule="evenodd" data-name="Path 3015"/><path d="M118.215 207.088c-.495.226-.608.897-.496 1.43.243 1.188 1.184 2.11 2.161 2.829a15.748 15.748 0 0 0 5.418 2.582c.628.159 1.3.282 1.926.094l.209-.011a70.073 70.073 0 0 0-.232-.997 18.246 18.246 0 0 0-7.862-5.821c-.36-.14-.773-.262-1.124-.106" fill="#4a4b4d" fill-rule="evenodd" data-name="Path 3014"/><path d="M128.786 227.171a.661.661 0 0 0 .11-.01 1.914 1.914 0 0 0-.008-.234l-.072.004c-.99-5.565-4.12-10.725-8.597-14.172a8.015 8.015 0 0 0-1.206-.79c-.737-.377-1.53-.575-2.3-.325-.256 2.292.44 4.612 1.583 6.614 1.144 2.006 2.719 3.722 4.336 5.366 1.652 1.673 3.531 3.375 5.86 3.677.11.013.255-.056.294-.13" fill="#4a4b4d" fill-rule="evenodd" data-name="Path 3013"/><path d="M113 222.646c-.078 1.653.62 3.242 1.448 4.678 3.092 5.337 8.285 9.426 14.195 11.185a33.552 33.552 0 0 0-6.495-13.035c-1.723-2.126-3.797-4.095-6.38-4.99-.375-.129-.772-.233-1.165-.174-1.011.146-1.55 1.311-1.602 2.336" fill="#4a4b4d" fill-rule="evenodd" data-name="Path 3012"/><path d="M111.196 233.935c-.241.428-.233.953-.19 1.444.47 5.347 4.146 9.897 8.305 13.292a43.197 43.197 0 0 0 8.041 5.21c.518-2.492-.345-5.081-1.465-7.371a31.828 31.828 0 0 0-10.94-12.466c-.587-.389-1.208-.764-1.907-.867-.697-.098-1.493.147-1.844.758" fill="#4a4b4d" fill-rule="evenodd" data-name="Path 3011"/><path d="M107.439 250.987c-.368 1.132.394 2.298 1.172 3.2 4.845 5.635 11.942 9.283 19.345 9.953.166-.229.33-.457.504-.686-.033-.295-.062-.59-.087-.884-1.867-3.442-4.026-6.797-6.986-9.36-3.005-2.61-6.95-4.34-10.913-3.983-1.236.106-2.646.583-3.035 1.76" fill="#339dd5" fill-rule="evenodd" data-name="Path 3010"/><path d="m124.42 294.464 14.325-4.857c.921-.33 1.246-1.268.725-2.095-.264-.404-.723-.742-1.186-.902a2.43 2.43 0 0 0-1.517-.032l-14.327 4.856c-.946.322-1.27 1.26-.723 2.096.189.289.494.573.833.758.121.063.25.108.353.144a2.435 2.435 0 0 0 1.516.032" fill="#fa9e4a" fill-rule="evenodd" data-name="Path 3009"/><path d="m112.886 272.31 14.327-4.857c.92-.33 1.245-1.267.725-2.096-.265-.404-.724-.741-1.187-.901a2.43 2.43 0 0 0-1.517-.033l-14.326 4.858c-.946.32-1.27 1.259-.724 2.095a2.4 2.4 0 0 0 .833.757c.122.065.25.109.354.145.514.178 1.033.179 1.515.032" fill="#fa9e4a" fill-rule="evenodd" data-name="Path 3008"/><path d="m99.803 243.779 14.326-4.858c.921-.33 1.246-1.267.725-2.095-.264-.404-.723-.742-1.187-.902a2.426 2.426 0 0 0-1.516-.032l-14.327 4.856c-.946.323-1.27 1.26-.723 2.097.187.288.493.573.833.757.121.064.25.108.353.144.515.178 1.033.18 1.516.033" fill="#fa9e4a" fill-rule="evenodd" data-name="Path 3007"/><path d="m88.27 221.625 14.327-4.858c.92-.33 1.245-1.267.724-2.095-.264-.404-.723-.742-1.186-.902a2.439 2.439 0 0 0-1.517-.032l-14.326 4.857c-.946.321-1.271 1.259-.724 2.096.189.288.494.573.833.757.121.065.25.11.353.144.515.178 1.034.18 1.516.033" fill="#fa9e4a" fill-rule="evenodd" data-name="Path 3006"/><path d="M75.323 212.861c-.825 4.473-.084 9.671 2.418 14.508l39.196 75.747c5.006 9.674 15.25 14.4 22.75 10.518a11.236 11.236 0 0 0 2.721-1.96c-6.997 1.413-15.234-3.247-19.564-11.615l-17.895-34.584-21.3-41.163c-1.25-2.418-2.078-4.934-2.441-7.383a20.322 20.322 0 0 1 .023-7.124c.599-3.254 2.029-6.14 4.223-8.195a11.215 11.215 0 0 0-3.17 1.088c-3.75 1.941-6.138 5.69-6.961 10.163" fill="#fa9e4a" fill-rule="evenodd" data-name="Path 3005"/><path d="m83.65 224.312 39.194 75.747c4.33 8.368 12.568 13.028 19.564 11.616 5.194-4.895 6.148-14.311 1.818-22.679L105.03 213.25c-4.33-8.368-12.58-13.053-19.576-11.639-2.194 2.054-3.624 4.942-4.223 8.195a20.293 20.293 0 0 0-.023 7.124c.363 2.449 1.19 4.965 2.441 7.383" fill="#ffc377" fill-rule="evenodd" data-name="Path 3004"/><path d="M293.14 273.245h-36.412s-1.466-17.641 17.96-17.108c11.679.319 15.99 6.415 17.56 11.237 1.057 3.214.892 5.871.892 5.871" fill="#fff" fill-rule="evenodd" data-name="Path 3003"/><path d="M271.127 251.181a3.144 3.144 0 0 1 3.14-3.13 3.129 3.129 0 0 1 3.13 3.13 3.123 3.123 0 0 1-3.13 3.13 3.138 3.138 0 0 1-3.14-3.13" fill="#fff" fill-rule="evenodd" data-name="Path 3002"/><path d="M255.477 275.299h38.412v2.822h-38.412v-2.822z" fill="#fff" fill-rule="evenodd" data-name="Rectangle 17283"/><g data-name="Group 2182"><g data-name="Group 2181"><g data-name="Group 2180" transform="translate(250.138 240.688)" clip-path="url(&quot;#b&quot;)"><path d="M42.252 50.305h-34.2C3.625 50.305 0 46.68 0 42.252v-34.2C0 3.625 3.624 0 8.053 0h34.199c4.43 0 8.053 3.624 8.053 8.053v34.199c0 4.428-3.624 8.053-8.053 8.053" fill="#fc6011" fill-rule="evenodd" data-name="Path 3001"/></g></g></g><g data-name="Group 2179"><g data-name="Group 2178"><g data-name="Group 2177" transform="translate(194.497 241.732)" clip-path="url(&quot;#c&quot;)"><path d="M42.252 50.305h-34.2C3.624 50.305 0 46.68 0 42.252v-34.2C0 3.625 3.624 0 8.052 0h34.2c4.43 0 8.051 3.624 8.051 8.053v34.199c0 4.428-3.622 8.053-8.051 8.053" fill="#fc6011" fill-rule="evenodd" data-name="Path 3000"/></g></g></g><g data-name="Group 2176"><g data-name="Group 2175"><g data-name="Group 2174" transform="translate(250.138 179.537)" clip-path="url(&quot;#d&quot;)"><path d="M42.252 50.305h-34.2C3.625 50.305 0 46.68 0 42.252v-34.2C0 3.625 3.624 0 8.053 0h34.199c4.43 0 8.053 3.624 8.053 8.053v34.199c0 4.428-3.624 8.053-8.053 8.053" fill="#fc6011" fill-rule="evenodd" data-name="Path 2999"/></g></g></g><g data-name="Group 2173"><g data-name="Group 2172"><g data-name="Group 2171" transform="translate(194.497 180.58)" clip-path="url(&quot;#e&quot;)"><path d="M42.252 50.306h-34.2C3.624 50.306 0 46.68 0 42.253v-34.2C0 3.626 3.624.002 8.052.002h34.2c4.43 0 8.051 3.624 8.051 8.053v34.199c0 4.428-3.622 8.053-8.051 8.053" fill="#fc6011" fill-rule="evenodd" data-name="Path 2998"/></g></g></g><path d="M268.065 380.63v9.235c0 7.32-5.989 13.319-13.32 13.319h-86.47c-7.314 0-13.32-5.998-13.32-13.32v-9.233h2.32c0 5.48 4.484 9.955 9.963 9.955h88.4c5.479 0 9.954-4.475 9.954-9.955h2.473Z" fill="#3e394f" fill-rule="evenodd" data-name="Path 2997"/><path d="M268.065 169.006V380.63h-2.473V169.906c0-5.479-4.475-9.964-9.954-9.964h-88.4c-5.479 0-9.964 4.485-9.964 9.964V380.63h-2.319V169.006c0-7.33 6.006-13.319 13.32-13.319h86.47c7.331 0 13.32 5.989 13.32 13.32" fill="#3e394f" fill-rule="evenodd" data-name="Path 2996"/><path d="M204.645 164.066a2.59 2.59 0 1 0-5.179-.007 2.59 2.59 0 0 0 5.179.007m9.34-2.595h-5.08a1.29 1.29 0 0 0-1.284 1.285v1.31c0 .712.58 1.283 1.284 1.283h5.08a1.28 1.28 0 0 0 1.286-1.283v-1.31c0-.705-.572-1.285-1.285-1.285m-22.03-1.525h39.12s-4.21.73-4.244 4.683c-.04 3.946-3.356 4.616-6.332 4.616H202.53c-2.975 0-6.29-.67-6.332-4.616-.033-3.953-4.244-4.683-4.244-4.683m28.653 1.666c-1.277 0-2.321.986-2.321 2.205s1.044 2.204 2.321 2.204c1.284 0 2.321-.985 2.321-2.204 0-1.22-1.037-2.205-2.32-2.205" fill="#3e394f" fill-rule="evenodd" data-name="Path 2995"/><path d="M215.27 162.755v1.31c0 .712-.571 1.284-1.284 1.284h-5.08a1.286 1.286 0 0 1-1.285-1.285v-1.309c0-.704.58-1.285 1.285-1.285h5.08c.713 0 1.285.58 1.285 1.285" fill="#1a1f29" fill-rule="evenodd" data-name="Path 2994"/><path d="M222.927 163.817c0 1.215-1.036 2.208-2.319 2.208-1.274 0-2.319-.993-2.319-2.208 0-1.214 1.045-2.208 2.32-2.208 1.282 0 2.318.994 2.318 2.208" fill="#515760" fill-rule="evenodd" data-name="Path 2993"/><path d="M202.05 161.47a2.59 2.59 0 1 1 .007 5.18 2.59 2.59 0 0 1-.007-5.18" fill="#3b414b" fill-rule="evenodd" data-name="Path 2992"/><path d="M265.593 169.906v210.725c0 5.479-4.476 9.955-9.955 9.955h-88.399c-5.479 0-9.964-4.476-9.964-9.955V169.906c0-5.479 4.485-9.964 9.964-9.964h88.399c5.479 0 9.955 4.485 9.955 9.964" fill="#fc6011" fill-rule="evenodd" data-name="Path 2991"/><path d="M255.299 152.077h-88.12c-9.615 0-17.438 7.832-17.438 17.447v219.847c0 9.615 7.823 17.438 17.438 17.438h88.12c9.614 0 17.438-7.823 17.438-17.438V169.524c0-9.615-7.824-17.447-17.438-17.447m16.614 237.294c0 9.156-7.458 16.605-16.614 16.605h-88.12c-9.157 0-16.605-7.449-16.605-16.605V169.524c0-9.156 7.448-16.615 16.605-16.615h88.12c9.156 0 16.614 7.459 16.614 16.615v219.847Z" fill="#ccc" fill-rule="evenodd" data-name="Path 2990"/><path d="M255.299 152.493h-88.12c-9.352 0-17.022 7.672-17.022 17.031v219.847c0 9.369 7.67 17.022 17.022 17.022h88.12c9.36 0 17.03-7.653 17.03-17.022V169.524c0-9.36-7.67-17.03-17.03-17.03m.339 7.448c5.479 0 9.955 4.487 9.955 9.964V380.63c0 5.48-4.476 9.957-9.955 9.957h-88.4c-5.478 0-9.963-4.476-9.963-9.957V169.906c0-5.477 4.485-9.964 9.963-9.964h88.4Z" fill="#29293d" fill-rule="evenodd" data-name="Path 2989"/></g><defs><clipPath id="e"><path d="M0 0h50.305v50.306H0V0z" data-name="Rectangle 17279"/></clipPath><clipPath id="d"><path d="M0 0h50.305v50.305H0V0z" data-name="Rectangle 17280"/></clipPath><clipPath id="c"><path d="M0 0h50.305v50.305H0V0z" data-name="Rectangle 17281"/></clipPath><clipPath id="b"><path d="M0 0h50.305v50.305H0V0z" data-name="Rectangle 17282"/></clipPath><clipPath id="a"><path d="M0 0h36.6v50.696H0V0z" data-name="Rectangle 17285"/></clipPath></defs></svg>