<svg xmlns="http://www.w3.org/2000/svg" width="210.613" height="313.262" viewBox="82 94 210.613 313.262"><g data-name="Live tracking vector"><path d="M147.583 166.758c-.521-.4-1.33-.395-1.76.154-.93 1.193-1.862 2.385-2.793 3.577-.402.515-.393 1.339.155 1.76.52.4 1.33.395 1.76-.154l2.792-3.577c.402-.515.394-1.34-.154-1.76" fill="#ffe1a4" fill-rule="evenodd" data-name="Path 3223"/><path d="m148.616 162.483-1.968-3.126c-.348-.553-1.228-.695-1.742-.297-.558.433-.67 1.149-.296 1.742l1.967 3.124c.348.555 1.23.697 1.741.298.558-.433.671-1.148.298-1.741" fill="#ffe1a4" fill-rule="evenodd" data-name="Path 3222"/><g data-name="Group 2202"><g data-name="Group 2201"><g data-name="Group 2200" transform="translate(121.103 258.454)" clip-path="url(&quot;#a&quot;)"><path d="M30.951 38.31H7.36c-4.048 0-7.36-3.312-7.36-7.359V7.361C-.001 3.311 3.31 0 7.359 0h23.592C35 0 38.31 3.312 38.31 7.36v23.591c0 4.047-3.31 7.36-7.358 7.36" fill="#fc6011" fill-rule="evenodd" data-name="Path 3161"/></g></g></g><path d="M161.957 167.186c-.649-.088-1.357.311-1.455 1.003l-.572 4.053c-.09.646.316 1.36 1.003 1.454.648.09 1.359-.31 1.455-1.003.19-1.35.38-2.7.572-4.052.09-.646-.317-1.36-1.003-1.455" fill="#ffe1a4" fill-rule="evenodd" data-name="Path 3221"/><path d="M165.978 176.022c-.19-.245-.473-.473-.794-.506l-3.356-.349c-.338-.035-.663.008-.95.21-.243.174-.463.491-.506.793-.045.325.003.681.21.948.191.246.474.474.795.507l3.356.348c.338.035.663-.007.948-.21.245-.172.464-.49.506-.793.044-.325-.002-.681-.209-.948" fill="#ffe1a4" fill-rule="evenodd" data-name="Path 3220"/><path d="M156.755 175.293c-.716-.1-1.271.326-1.455 1.003l-1.503 5.556c-.173.632.372 1.368 1.003 1.454.716.1 1.27-.326 1.454-1.003.5-1.852 1.003-3.704 1.504-5.556.171-.63-.372-1.368-1.003-1.454" fill="#ffe1a4" fill-rule="evenodd" data-name="Path 3219"/><path d="m119.998 211.863-6.019-1.966c-.62-.2-1.38-.079-1.664.596-.235.56-.068 1.448.595 1.664l6.02 1.964c.62.202 1.379.08 1.663-.595.237-.558.069-1.447-.595-1.663" fill="#ffe1a4" fill-rule="evenodd" data-name="Path 3218"/><path d="m125.732 215.242-6.018.92c-.645.098-1.23.654-1.136 1.353.083.636.661 1.241 1.353 1.136l6.019-.92c.645-.099 1.228-.655 1.136-1.353-.085-.636-.662-1.242-1.354-1.136" fill="#ffe1a4" fill-rule="evenodd" data-name="Path 3217"/><path d="M136.796 220.611a15416.56 15416.56 0 0 1-3.936-4.165c-.206-.218-.629-.312-.912-.288-.304.027-.658.194-.848.442-.197.256-.33.58-.287.911.046.35.201.595.44.848l3.937 4.167c.205.217.63.312.911.288.306-.027.658-.194.848-.442.197-.256.331-.58.287-.911-.046-.35-.2-.595-.44-.85" fill="#ffe1a4" fill-rule="evenodd" data-name="Path 3216"/><path d="M149.31 218.274c-.393-.508-1.197-.735-1.742-.298l-4.745 3.82c-.508.41-.73 1.186-.298 1.742.395.508 1.197.735 1.742.297l4.745-3.82c.508-.409.73-1.185.298-1.741" fill="#ffe1a4" fill-rule="evenodd" data-name="Path 3215"/><path d="m148.3 213.044-6.136.565c-.65.06-1.224.683-1.135 1.354.09.669.656 1.2 1.353 1.135l6.136-.565c.65-.06 1.224-.682 1.135-1.353-.089-.67-.655-1.201-1.352-1.136" fill="#ffe1a4" fill-rule="evenodd" data-name="Path 3214"/><path d="m156.868 214.046-1.158-5.093c-.063-.283-.389-.577-.637-.695-.28-.131-.679-.163-.97-.04-.292.123-.566.335-.693.636-.14.333-.12.623-.042.97l1.158 5.093c.065.282.39.576.637.694.28.132.68.165.97.04.292-.122.567-.334.693-.635.141-.332.121-.623.042-.97" fill="#ffe1a4" fill-rule="evenodd" data-name="Path 3213"/><path d="M167.034 205.421c-.495-.381-1.362-.42-1.761.154l-3.124 4.515c-.194.278-.318.561-.288.912.026.304.194.656.442.848.496.38 1.363.418 1.76-.155l3.125-4.514c.192-.28.318-.562.286-.912-.026-.305-.193-.658-.44-.848" fill="#ffe1a4" fill-rule="evenodd" data-name="Path 3212"/><path d="M168.862 195.037c-.211-.274-.465-.407-.793-.507l-4.168-1.274c-.288-.088-.712.043-.947.21-.245.173-.466.49-.508.793-.043.325.004.682.211.948.211.273.464.406.792.507l4.168 1.274c.29.087.713-.043.947-.21.245-.174.466-.491.508-.793.044-.326-.004-.682-.21-.948" fill="#ffe1a4" fill-rule="evenodd" data-name="Path 3211"/><path d="M158.042 193.679c-.105-.281-.355-.575-.637-.693-.565-.239-1.439-.065-1.664.595l-1.736 5.092c-.112.33-.167.631-.041.97.105.282.354.575.637.694.565.238 1.439.065 1.663-.595l1.737-5.093c.11-.33.167-.63.041-.97" fill="#ffe1a4" fill-rule="evenodd" data-name="Path 3210"/><path d="m144.796 207.284-7.173-2.208c-.626-.192-1.37.389-1.455 1.003-.1.737.332 1.249 1.003 1.456l7.174 2.206c.626.194 1.37-.387 1.454-1.002.102-.736-.331-1.248-1.003-1.455" fill="#ffe1a4" fill-rule="evenodd" data-name="Path 3209"/><path d="M140.588 194.353c-.106-.644-.65-1.229-1.352-1.136-.632.084-1.25.663-1.137 1.354l1.042 6.366c.104.643.648 1.229 1.353 1.136.63-.084 1.248-.663 1.135-1.354l-1.041-6.366" fill="#ffe1a4" fill-rule="evenodd" data-name="Path 3208"/><path d="M133.937 197.577c-1.891.426-3.78.85-5.671 1.274-.34.077-.616.163-.85.441-.195.235-.327.603-.286.912.079.598.67 1.289 1.353 1.136 1.89-.424 3.781-.85 5.672-1.273.34-.077.614-.164.848-.442.197-.235.328-.603.287-.912-.08-.597-.67-1.288-1.353-1.136" fill="#ffe1a4" fill-rule="evenodd" data-name="Path 3207"/><path d="M109.454 200.257c-.107-.643-.648-1.23-1.353-1.136-.628.083-1.25.663-1.136 1.353.31 1.852.617 3.705.926 5.556.108.643.648 1.23 1.355 1.135.627-.083 1.249-.662 1.134-1.353l-.926-5.555" fill="#ffe1a4" fill-rule="evenodd" data-name="Path 3206"/><path d="M116.173 165.196c-.593-.25-1.403-.052-1.663.595l-1.628 4.048c-.244.606-.052 1.392.595 1.665.593.25 1.403.051 1.664-.596l1.627-4.049c.244-.605.052-1.39-.595-1.663" fill="#ffe1a4" fill-rule="evenodd" data-name="Path 3205"/><path d="m131.167 157.793-4.167.81c-.336.065-.62.17-.848.441-.197.235-.328.603-.288.912.082.614.667 1.27 1.354 1.136l4.166-.81c.336-.066.621-.171.848-.441.197-.235.33-.605.287-.912-.08-.614-.666-1.27-1.352-1.136" fill="#ffe1a4" fill-rule="evenodd" data-name="Path 3204"/><path d="M135.18 164.832c-.029-.653-.702-1.221-1.351-1.136a1.278 1.278 0 0 0-1.137 1.354l.231 5.093c.031.653.705 1.222 1.354 1.136a1.276 1.276 0 0 0 1.136-1.354l-.232-5.093Z" fill="#ffe1a4" fill-rule="evenodd" data-name="Path 3203"/><path d="M134.761 183.603c-.285-.676-.927-.912-1.607-.735l-5.326 1.385c-.633.165-.978 1.03-.733 1.606.284.676.926.913 1.606.736l5.325-1.385c.634-.166.98-1.03.735-1.607" fill="#ffe1a4" fill-rule="evenodd" data-name="Path 3202"/><path d="M124.035 179.118c-.679-.094-1.317.317-1.454 1.003l-1.271 6.366c-.13.641.34 1.364 1.003 1.455.679.094 1.317-.317 1.454-1.003l1.271-6.367c.128-.64-.342-1.363-1.003-1.454" fill="#ffe1a4" fill-rule="evenodd" data-name="Path 3201"/><path d="M113.909 188.438a1.277 1.277 0 0 0-1.741-.298l-4.989 3.225c-.549.355-.698 1.224-.296 1.741a1.276 1.276 0 0 0 1.74.298l4.988-3.225c.55-.355.699-1.224.298-1.741" fill="#ffe1a4" fill-rule="evenodd" data-name="Path 3200"/><path d="m117.819 182.295-5.452-5.66c-.457-.473-1.38-.343-1.76.154-.45.583-.332 1.255.152 1.76 1.817 1.886 3.637 3.773 5.452 5.66.455.472 1.38.342 1.76-.155.45-.583.332-1.255-.152-1.76" fill="#ffe1a4" fill-rule="evenodd" data-name="Path 3199"/><path d="M164.712 182.802a2.598 2.598 0 1 1-5.196 0 2.598 2.598 0 0 1 5.196 0" fill="#f25c5c" fill-rule="evenodd" data-name="Path 3198"/><path d="M151.616 179.314a3.489 3.489 0 1 1-6.977-.001 3.489 3.489 0 0 1 6.977.001" fill="#f25c5c" fill-rule="evenodd" data-name="Path 3197"/><path d="M158.306 168.567a4.697 4.697 0 1 1-9.395 0 4.697 4.697 0 0 1 9.395 0" fill="#f25c5c" fill-rule="evenodd" data-name="Path 3196"/><path d="M172.238 186.934h-30.586v-30.585c16.898 0 30.586 13.687 30.586 30.585" fill="#edac4a" fill-rule="evenodd" data-name="Path 3195"/><path d="M177.382 186.934h-35.73v-35.73c19.739 0 35.73 15.99 35.73 35.73" fill="#ffe1a4" fill-rule="evenodd" data-name="Path 3194"/><path d="M163.601 203.176a3.382 3.382 0 1 1-6.764 0 3.382 3.382 0 0 1 6.764 0" fill="#f25c5c" fill-rule="evenodd" data-name="Path 3193"/><path d="M151.605 200.305a3.828 3.828 0 1 1-7.655.001 3.828 3.828 0 0 1 7.655 0" fill="#f25c5c" fill-rule="evenodd" data-name="Path 3192"/><path d="M134.378 210.45a3.892 3.892 0 1 1-7.784 0 3.892 3.892 0 0 1 7.784 0" fill="#f25c5c" fill-rule="evenodd" data-name="Path 3191"/><path d="M130.209 193.733a2.744 2.744 0 1 1-5.488 0 2.744 2.744 0 0 1 5.488 0" fill="#f25c5c" fill-rule="evenodd" data-name="Path 3190"/><path d="M123.275 203.24a5.743 5.743 0 1 1-11.486 0 5.743 5.743 0 0 1 11.486 0" fill="#f25c5c" fill-rule="evenodd" data-name="Path 3189"/><path d="M130.933 170.23a6.21 6.21 0 1 1-12.422 0 6.211 6.211 0 0 1 12.422 0" fill="#f25c5c" fill-rule="evenodd" data-name="Path 3188"/><path d="M174.808 189.716c0 20.18-16.361 36.56-36.559 36.56-20.199 0-36.56-16.38-36.56-36.56 0-20.198 16.361-36.559 36.56-36.559v36.56h36.56Z" fill="#edac4a" fill-rule="evenodd" data-name="Path 3187"/><path d="M180.96 189.716c0 23.577-19.114 42.71-42.71 42.71-23.595 0-42.712-19.133-42.712-42.71 0-23.595 19.117-42.71 42.711-42.71v42.71h42.711Z" fill="#ffe1a4" fill-rule="evenodd" data-name="Path 3186"/><path d="M196.164 110.742c.203 12.885-16.732 26.996-16.732 26.996-18.693-16.675-16.742-26.996-16.742-26.996 0-9.246 7.497-16.742 16.742-16.742 9.244 0 16.732 7.496 16.732 16.742m-8.293 0a8.438 8.438 0 0 0-8.439-8.44 8.437 8.437 0 0 0-8.438 8.44c0 4.65 3.777 8.429 8.438 8.429 4.662 0 8.439-3.778 8.439-8.43" fill="#edac4a" fill-rule="evenodd" data-name="Path 3185"/><path d="M196.224 282.453h-27.729s-1.117-13.435 13.677-13.028c8.895.243 12.177 4.885 13.372 8.558.805 2.446.68 4.47.68 4.47" fill="#fff" fill-rule="evenodd" data-name="Path 3164"/><path d="M179.462 265.65a2.394 2.394 0 0 1 2.391-2.382 2.384 2.384 0 1 1 0 4.767 2.39 2.39 0 0 1-2.391-2.385" fill="#fff" fill-rule="evenodd" data-name="Path 3163"/><path d="M167.543 284.017h29.252v2.15h-29.252v-2.15z" fill="#fff" fill-rule="evenodd" data-name="Rectangle 17300"/><g data-name="Group 2205"><g data-name="Group 2204"><g data-name="Group 2203" transform="translate(163.477 257.66)" clip-path="url(&quot;#b&quot;)"><path d="M30.951 38.31H7.361C3.311 38.31 0 34.998 0 30.951V7.361C0 3.312 3.312 0 7.36 0h23.591c4.048 0 7.36 3.313 7.36 7.36v23.591c0 4.047-3.312 7.36-7.36 7.36" fill="#fc6011" fill-rule="evenodd" data-name="Path 3162"/></g></g></g><g data-name="Group 2199"><g data-name="Group 2198"><g data-name="Group 2197" transform="translate(163.477 211.09)" clip-path="url(&quot;#c&quot;)"><path d="M30.951 38.31H7.361C3.311 38.31 0 34.997 0 30.95V7.36C0 3.312 3.312 0 7.36 0h23.591c4.048 0 7.36 3.312 7.36 7.36v23.59c0 4.048-3.312 7.36-7.36 7.36" fill="#fc6011" fill-rule="evenodd" data-name="Path 3160"/></g></g></g><g data-name="Group 2196"><g data-name="Group 2195"><g data-name="Group 2194" transform="translate(121.103 211.885)" clip-path="url(&quot;#d&quot;)"><path d="M30.951 38.31H7.36c-4.048 0-7.36-3.313-7.36-7.36V7.36C-.001 3.311 3.31 0 7.359 0h23.592C35 0 38.31 3.312 38.31 7.36v23.59c0 4.047-3.31 7.36-7.358 7.36" fill="#fc6011" fill-rule="evenodd" data-name="Path 3159"/></g></g></g><g data-name="Group 2193"><g data-name="Group 2192"><g data-name="Group 2191" transform="translate(164.352 163.657)" clip-path="url(&quot;#e&quot;)"><path d="M30.95 38.31H7.36C3.311 38.31 0 34.996 0 30.95V7.36C0 3.31 3.312-.002 7.36-.002h23.59c4.048 0 7.36 3.312 7.36 7.36V30.95c0 4.047-3.312 7.36-7.36 7.36" fill="#fc6011" fill-rule="evenodd" data-name="Path 3158"/></g></g></g><g data-name="Group 2190"><g data-name="Group 2189"><g data-name="Mask Group 2188" transform="translate(121.979 164.451)" clip-path="url(&quot;#f&quot;)"><path d="M30.949 38.31H7.358c-4.047 0-7.36-3.312-7.36-7.36V7.36C-.001 3.312 3.312 0 7.359 0h23.591c4.048 0 7.36 3.312 7.36 7.36v23.59c0 4.048-3.312 7.36-7.36 7.36" fill="#fc6011" fill-rule="evenodd" data-name="Path 3157"/></g></g></g><path d="M132.855 313.934h-9.245c-4.537 0-8.249-3.712-8.249-8.249 0-4.537 3.712-8.249 8.249-8.249h9.245c4.537 0 8.25 3.712 8.25 8.25 0 4.536-3.713 8.248-8.25 8.248" fill="#ffa9a9" fill-rule="evenodd" data-name="Path 3156"/><path d="M131.043 297.437h-8.793c-5.31 0-9.654-4.344-9.654-9.653 0-5.31 4.345-9.654 9.654-9.654h8.793c5.309 0 9.654 4.344 9.654 9.654 0 5.309-4.345 9.653-9.654 9.653" fill="#ffa9a9" fill-rule="evenodd" data-name="Path 3155"/><path d="M130.68 278.13h-8.794c-5.309 0-9.652-4.344-9.652-9.654s4.343-9.653 9.652-9.653h8.793c5.31 0 9.654 4.343 9.654 9.653 0 5.31-4.345 9.654-9.654 9.654" fill="#ffa9a9" fill-rule="evenodd" data-name="Path 3154"/><path d="M132.448 258.823H123.2c-4.537 0-8.249-3.712-8.249-8.249 0-4.537 3.712-8.249 8.25-8.249h9.246c4.537 0 8.249 3.712 8.249 8.249 0 4.537-3.712 8.249-8.25 8.249" fill="#ffa9a9" fill-rule="evenodd" data-name="Path 3153"/><path d="M211.76 367.052s-25.924-61.82 12.328-96.809c0 0-10.152-58.556 0-66.714 10.153-8.157 17.04 21.21 33.357 114.212l35.123 47.86.045 41.661H229.47l-17.71-40.21Z" fill="#ffa9a9" fill-rule="evenodd" data-name="Path 3152"/><path d="M222.464 315.16v7.032c0 5.576-4.56 10.143-10.143 10.143h-65.853c-5.568 0-10.142-4.567-10.142-10.143v-7.032h1.766c0 4.172 3.415 7.581 7.589 7.581H213c4.172 0 7.58-3.409 7.58-7.58h1.884Z" fill="#3e394f" fill-rule="evenodd" data-name="Path 3151"/><path d="M222.464 153.999V315.16h-1.883V154.684c0-4.172-3.409-7.587-7.581-7.587h-67.32c-4.173 0-7.588 3.415-7.588 7.587V315.16h-1.766V154c0-5.583 4.574-10.143 10.142-10.143h65.853c5.583 0 10.143 4.56 10.143 10.143" fill="#3e394f" fill-rule="evenodd" data-name="Path 3150"/><path d="M174.168 150.236a1.974 1.974 0 1 0-3.945-.006 1.974 1.974 0 0 0 3.945.006m7.112-1.976h-3.868a.984.984 0 0 0-.979.979v.997c0 .543.442.978.979.978h3.868a.975.975 0 0 0 .979-.978v-.997a.98.98 0 0 0-.98-.98m-16.775-1.16h29.791s-3.206.556-3.232 3.566c-.032 3.005-2.556 3.516-4.821 3.516H172.557c-2.266 0-4.79-.51-4.822-3.516-.024-3.01-3.231-3.566-3.231-3.566m21.82 1.269c-.973 0-1.767.75-1.767 1.678 0 .928.794 1.68 1.766 1.68.979 0 1.768-.752 1.768-1.68 0-.927-.79-1.678-1.768-1.678" fill="#3e394f" fill-rule="evenodd" data-name="Path 3149"/><path d="M182.259 149.239v.997a.975.975 0 0 1-.98.978h-3.867a.98.98 0 0 1-.979-.978v-.997c0-.536.443-.98.979-.98h3.868a.98.98 0 0 1 .979.98" fill="#1a1f29" fill-rule="evenodd" data-name="Path 3148"/><path d="M188.088 150.046c0 .925-.788 1.682-1.765 1.682-.97 0-1.766-.757-1.766-1.682 0-.925.796-1.682 1.766-1.682.977 0 1.765.757 1.765 1.682" fill="#515760" fill-rule="evenodd" data-name="Path 3147"/><path d="M172.192 148.26c1.091 0 1.976.884 1.976 1.975a1.974 1.974 0 0 1-3.946 0c0-1.09.884-1.975 1.97-1.975" fill="#3b414b" fill-rule="evenodd" data-name="Path 3146"/><path d="M220.58 154.684V315.16c0 4.172-3.409 7.581-7.58 7.581h-67.32c-4.173 0-7.588-3.409-7.588-7.58V154.683c0-4.172 3.415-7.587 7.588-7.587H213c4.171 0 7.58 3.415 7.58 7.587" fill="#fecfb7" fill-rule="evenodd" data-name="Path 3145"/><path d="M212.74 141.106h-67.105c-7.323 0-13.28 5.964-13.28 13.287v167.423c0 7.323 5.957 13.28 13.28 13.28h67.106c7.322 0 13.28-5.957 13.28-13.28V154.393c0-7.323-5.958-13.287-13.28-13.287m12.653 180.71c0 6.974-5.68 12.646-12.653 12.646h-67.106c-6.974 0-12.647-5.672-12.647-12.646V154.393c0-6.974 5.673-12.653 12.647-12.653h67.106c6.973 0 12.653 5.68 12.653 12.653v167.423Z" fill="#ccc" fill-rule="evenodd" data-name="Path 3144"/><path d="M212.742 141.424h-67.107c-7.122 0-12.963 5.84-12.963 12.969v167.423c0 7.135 5.84 12.964 12.963 12.964h67.107c7.128 0 12.969-5.829 12.969-12.964V154.393c0-7.128-5.84-12.97-12.97-12.97m.259 5.674c4.172 0 7.58 3.415 7.58 7.587V315.16c0 4.173-3.408 7.581-7.58 7.581h-67.32c-4.173 0-7.587-3.408-7.587-7.58V154.683c0-4.172 3.414-7.587 7.588-7.587H213Z" fill="#29293d" fill-rule="evenodd" data-name="Path 3143"/><path d="m268.747 224.39 4.137 103.94c.063 1.577 1.023 2.82 2.145 2.776.949-.038 1.735-.997 1.89-2.31l5.917-49.69c.387-3.243-.795-6.517-2.906-8.052-1.846-1.342-3.006-4.04-2.978-6.929l.385-39.655c.034-3.5-2.051-6.39-4.538-6.292-2.371.095-4.185 2.876-4.052 6.212" fill="#fc6011" fill-rule="evenodd" data-name="Path 3141"/><path d="M82 256.716a2.805 2.805 0 1 1 5.61.001 2.805 2.805 0 0 1-5.61-.001" fill="#fc6011" fill-rule="evenodd" data-name="Path 3140"/><path d="m90.579 241.906 5.084-3.51 3.51 5.084-5.085 3.51-3.51-5.084z" fill="#fc6011" fill-rule="evenodd" data-name="Rectangle 17293"/><path d="M95.797 257.826a2.577 2.577 0 1 1 5.155 0 2.577 2.577 0 0 1-5.155 0" fill="#fecfb7" fill-rule="evenodd" data-name="Path 3139"/><path d="M271.525 134.659a2.7 2.7 0 1 1 5.4 0 2.7 2.7 0 0 1-5.4 0" fill="#fc6011" fill-rule="evenodd" data-name="Path 3138"/><path d="M245.335 138.49a3.95 3.95 0 1 1 7.9-.002 3.95 3.95 0 0 1-7.9.001" fill="#fecfb7" fill-rule="evenodd" data-name="Path 3137"/><path d="m254.162 124.742 3.68-5.33 5.33 3.68-3.68 5.33-5.33-3.68z" fill="#fecfb7" fill-rule="evenodd" data-name="Rectangle 17292"/><path d="M246.374 114.061a4.652 4.652 0 0 1-4.65-4.646 4.656 4.656 0 0 1 4.65-4.652 4.656 4.656 0 0 1 4.648 4.652 4.652 4.652 0 0 1-4.648 4.646m-2.913-4.646a2.913 2.913 0 0 0 5.825 0 2.918 2.918 0 0 0-2.912-2.915 2.917 2.917 0 0 0-2.913 2.915" fill="#fc6011" fill-rule="evenodd" data-name="Path 3136"/><path d="m236.78 127.71 2.081 2.087-1.697 1.697-2.088-2.08-2.076 2.08-1.702-1.697 2.081-2.086-2.096-2.096 1.698-1.697 2.095 2.096 2.088-2.082 1.697 1.703-2.082 2.076Z" fill="#fc6011" fill-rule="evenodd" data-name="Path 3135"/><path d="M263.01 215.672a13.663 13.663 0 0 0-4.49 11.004l5.309 83.506s1.574 12.87-9.722 12.87c-11.297 0-9.723-12.87-9.723-12.87l5.293-83.506a13.649 13.649 0 0 0-4.491-11.004l-1.203-1.08a13.653 13.653 0 0 1-4.399-11.914l5.479-42.239a1.476 1.476 0 0 1 1.45-1.265c.803 0 1.451.633 1.466 1.434l.67 39.766c.013.86.713 1.548 1.572 1.548h.736c.87 0 1.576-.705 1.576-1.574v-39.6a1.575 1.575 0 0 1 3.147 0v39.6c0 .869.705 1.574 1.574 1.574h.737c.858 0 1.56-.689 1.573-1.548l.67-39.766c0-.801.662-1.434 1.45-1.434.741 0 1.357.54 1.45 1.265l5.494 42.239a13.7 13.7 0 0 1-4.413 11.915l-1.204 1.08Z" fill="#fc6011" fill-rule="evenodd" data-name="Path 3134"/></g><defs><clipPath id="f"><path d="M0 0h38.31v38.31H0V0z" data-name="Rectangle 17294"/></clipPath><clipPath id="e"><path d="M0 0h38.31v38.31H0V0z" data-name="Rectangle 17295"/></clipPath><clipPath id="d"><path d="M0 0h38.31v38.31H0V0z" data-name="Rectangle 17296"/></clipPath><clipPath id="c"><path d="M0 0h38.31v38.31H0V0z" data-name="Rectangle 17297"/></clipPath><clipPath id="b"><path d="M0 0h38.31v38.31H0V0z" data-name="Rectangle 17299"/></clipPath><clipPath id="a"><path d="M0 0h38.31v38.31H0V0z" data-name="Rectangle 17298"/></clipPath></defs></svg>